<svg width="40" height="28" viewBox="0 0 40 28" fill="none" xmlns="http://www.w3.org/2000/svg">
<path d="M4.44444 0.5C1.99306 0.5 0 2.51797 0 5V23C0 25.482 1.99306 27.5 4.44444 27.5H35.5556C38.0069 27.5 40 25.482 40 23V5C40 2.51797 38.0069 0.5 35.5556 0.5H4.44444ZM7.77778 11.75H18.8889C19.5 11.75 20 12.2563 20 12.875C20 13.4937 19.5 14 18.8889 14H7.77778C7.16667 14 6.66667 13.4937 6.66667 12.875C6.66667 12.2563 7.16667 11.75 7.77778 11.75ZM6.66667 19.625C6.66667 19.0063 7.16667 18.5 7.77778 18.5H32.2222C32.8333 18.5 33.3333 19.0063 33.3333 19.625C33.3333 20.2437 32.8333 20.75 32.2222 20.75H7.77778C7.16667 20.75 6.66667 20.2437 6.66667 19.625ZM26.1111 7.25H31.6667C32.5903 7.25 33.3333 8.00234 33.3333 8.9375V12.3125C33.3333 13.2477 32.5903 14 31.6667 14H26.1111C25.1875 14 24.4444 13.2477 24.4444 12.3125V8.9375C24.4444 8.00234 25.1875 7.25 26.1111 7.25Z" fill="#383838"/>
</svg>
