<svg width="22" height="22" viewBox="0 0 22 22" fill="none" xmlns="http://www.w3.org/2000/svg">
<path d="M1 2.84375C1 2.37617 1.37153 2 1.83333 2H3.41319C4.17708 2 4.85417 2.45 5.17014 3.125H19.441C20.3542 3.125 21.0208 4.00391 20.7812 4.89688L19.3576 10.2512C19.0625 11.3551 18.0729 12.125 16.9444 12.125H6.92708L7.11458 13.127C7.19097 13.5242 7.53472 13.8125 7.93403 13.8125H17.9444C18.4062 13.8125 18.7778 14.1887 18.7778 14.6562C18.7778 15.1238 18.4062 15.5 17.9444 15.5H7.93403C6.73264 15.5 5.70139 14.6352 5.47917 13.4434L3.6875 3.91602C3.66319 3.78242 3.54861 3.6875 3.41319 3.6875H1.83333C1.37153 3.6875 1 3.31133 1 2.84375ZM5.44444 18.3125C5.44444 18.0909 5.48755 17.8715 5.57131 17.6667C5.65507 17.462 5.77783 17.276 5.9326 17.1193C6.08736 16.9626 6.2711 16.8383 6.47331 16.7535C6.67551 16.6686 6.89224 16.625 7.11111 16.625C7.32998 16.625 7.54671 16.6686 7.74892 16.7535C7.95113 16.8383 8.13486 16.9626 8.28962 17.1193C8.44439 17.276 8.56715 17.462 8.65091 17.6667C8.73467 17.8715 8.77778 18.0909 8.77778 18.3125C8.77778 18.5341 8.73467 18.7535 8.65091 18.9583C8.56715 19.163 8.44439 19.349 8.28962 19.5057C8.13486 19.6624 7.95113 19.7867 7.74892 19.8715C7.54671 19.9564 7.32998 20 7.11111 20C6.89224 20 6.67551 19.9564 6.47331 19.8715C6.2711 19.7867 6.08736 19.6624 5.9326 19.5057C5.77783 19.349 5.65507 19.163 5.57131 18.9583C5.48755 18.7535 5.44444 18.5341 5.44444 18.3125ZM17.1111 16.625C17.5531 16.625 17.9771 16.8028 18.2896 17.1193C18.6022 17.4357 18.7778 17.8649 18.7778 18.3125C18.7778 18.7601 18.6022 19.1893 18.2896 19.5057C17.9771 19.8222 17.5531 20 17.1111 20C16.6691 20 16.2452 19.8222 15.9326 19.5057C15.62 19.1893 15.4444 18.7601 15.4444 18.3125C15.4444 17.8649 15.62 17.4357 15.9326 17.1193C16.2452 16.8028 16.6691 16.625 17.1111 16.625Z" fill="#383838"/>
</svg>
