<svg width="54" height="29" viewBox="0 0 54 29" fill="none" xmlns="http://www.w3.org/2000/svg">
<path d="M5.39571 14.6382C7.3822 14.446 9.29364 14.1897 11.2226 14.0892C15.4425 13.8387 19.6791 14.4142 23.4493 15.7501C25.0354 16.3198 26.4765 16.6783 28.2028 16.571C28.4855 16.5758 28.7661 16.5361 29.0234 16.4549C33.8421 14.2157 39.1811 13.7758 44.7853 14.2555C46.0362 14.3646 47.2871 14.5378 48.7482 14.7023C48.2729 13.2805 47.8401 11.9729 47.3972 10.6654C46.7317 8.7015 46.0537 6.74106 45.3957 4.77716C44.8503 3.14577 43.6094 2.6903 41.3752 3.28605C40.4507 3.54379 39.505 3.76353 38.5431 3.94415C37.4923 4.12945 36.7492 3.77096 36.3514 3.11113C35.9536 2.4513 36.0037 1.76376 36.9344 1.41913C39.126 0.610362 41.3277 -0.265946 44.0022 0.076957C46.8293 0.43891 48.6907 1.56634 49.3712 3.48175C50.8923 7.76284 52.6011 12.0266 53.6594 16.3649C54.2374 18.734 54.0147 21.2781 53.4768 23.6715C52.8363 26.5342 48.7032 28.7839 44.3199 28.9172C41.6029 28.9986 38.7657 28.9778 36.1513 28.5293C31.813 27.7863 29.3112 25.2111 28.9309 21.7924C28.8958 21.4772 28.8758 21.1621 28.8433 20.7741H25.2356C25.1205 21.4911 25.0455 22.2029 24.8853 22.9043C24.5362 24.5159 23.3968 25.9953 21.6584 27.0943C19.92 28.1933 17.6884 28.8449 15.3382 28.9397C13.1366 29.052 10.9241 29.0073 8.73572 28.8064C3.6494 28.2678 0.364436 25.3427 0.0567052 21.8028C-0.306067 17.6291 1.13751 13.6805 2.51355 9.7025C3.19156 7.74033 3.84204 5.77469 4.51505 3.81426C5.56083 0.752373 9.59136 -0.743932 13.832 0.364442C14.7652 0.608631 15.6884 0.883993 16.5841 1.18187C17.7024 1.56114 18.1353 2.24695 17.7825 2.95527C17.4072 3.70862 16.5466 4.09135 15.3182 3.91124C14.3937 3.74513 13.4894 3.52915 12.6136 3.26527C10.4945 2.70069 9.23359 3.12152 8.70319 4.64208C7.58235 7.86329 6.49654 11.0914 5.40071 14.3161C5.38182 14.423 5.38015 14.5311 5.39571 14.6382ZM15.806 18.4483C15.4783 18.2751 15.4182 18.2214 15.3457 18.2127C12.338 17.8963 9.26338 18.1174 6.41398 18.8552C6.28901 18.8936 6.1787 18.9516 6.09183 19.0247C6.00496 19.0977 5.94393 19.1838 5.9136 19.2761C5.86356 20.0641 5.89108 20.8538 5.89108 21.8738L15.806 18.4483ZM44.2599 18.4483C43.9747 18.2855 43.8896 18.1972 43.7895 18.1868C40.8513 17.9115 37.8605 18.1356 35.0755 18.8397C34.9556 18.8811 34.8518 18.942 34.773 19.017C34.6942 19.0921 34.6426 19.1791 34.6226 19.2709C34.6477 20.0294 34.7477 20.788 34.8378 21.7145L44.2599 18.4483Z" fill="#545454"/>
</svg>
