<svg width="40" height="31" viewBox="0 0 40 31" fill="none" xmlns="http://www.w3.org/2000/svg">
<g clip-path="url(#clip0_486_2505)">
<path d="M3 0C1.34375 0 0 1.30176 0 2.90625V22.2812C0 23.8857 1.34375 25.1875 3 25.1875H4C4 28.3965 6.6875 31 10 31C13.3125 31 16 28.3965 16 25.1875H24C24 28.3965 26.6875 31 30 31C33.3125 31 36 28.3965 36 25.1875H38C39.1063 25.1875 40 24.3217 40 23.25C40 22.1783 39.1063 21.3125 38 21.3125V17.4375V15.5V14.3678C38 13.3385 37.5812 12.3516 36.8312 11.625L32 6.94473C31.25 6.21816 30.2313 5.8125 29.1688 5.8125H26V2.90625C26 1.30176 24.6562 0 23 0H3ZM26 9.6875H29.1688L34 14.3678V15.5H26V9.6875ZM7 25.1875C7 24.4167 7.31607 23.6775 7.87868 23.1325C8.44129 22.5874 9.20435 22.2812 10 22.2812C10.7956 22.2812 11.5587 22.5874 12.1213 23.1325C12.6839 23.6775 13 24.4167 13 25.1875C13 25.9583 12.6839 26.6975 12.1213 27.2425C11.5587 27.7876 10.7956 28.0938 10 28.0938C9.20435 28.0938 8.44129 27.7876 7.87868 27.2425C7.31607 26.6975 7 25.9583 7 25.1875ZM30 22.2812C30.7956 22.2812 31.5587 22.5874 32.1213 23.1325C32.6839 23.6775 33 24.4167 33 25.1875C33 25.9583 32.6839 26.6975 32.1213 27.2425C31.5587 27.7876 30.7956 28.0938 30 28.0938C29.2044 28.0938 28.4413 27.7876 27.8787 27.2425C27.3161 26.6975 27 25.9583 27 25.1875C27 24.4167 27.3161 23.6775 27.8787 23.1325C28.4413 22.5874 29.2044 22.2812 30 22.2812Z" fill="#383838"/>
</g>
<defs>
<clipPath id="clip0_486_2505">
<rect width="40" height="31" fill="white"/>
</clipPath>
</defs>
</svg>
