<svg xmlns="http://www.w3.org/2000/svg" xmlns:xlink="http://www.w3.org/1999/xlink" width="500" zoomAndPan="magnify" viewBox="0 0 375 374.999991" height="500" preserveAspectRatio="xMidYMid meet" version="1.2"><defs><clipPath id="40261cdf16"><path d="M 0 39 L 373 39 L 373 369.503906 L 0 369.503906 Z M 0 39 "/></clipPath></defs><g id="e30b8a961b"><path style=" stroke:none;fill-rule:nonzero;fill:#fed29c;fill-opacity:1;" d="M 149.695312 79.585938 C 157.847656 72.027344 187.742188 65.199219 200.664062 65.199219 C 201.726562 65.191406 202.773438 65.324219 203.800781 65.59375 C 205.261719 65.992188 205.34375 65.988281 205.34375 67.308594 C 205.34375 68.183594 205.3125 68.734375 205.3125 69.441406 C 205.3125 69.753906 205.671875 80.21875 205.671875 93.214844 C 205.671875 93.867188 205.601562 94.148438 205.101562 94.148438 C 204.09375 94.148438 201.234375 92.777344 192.320312 92.777344 C 189.007812 92.777344 186.480469 93.003906 186.308594 93.003906 C 185.964844 93.011719 185.652344 92.914062 185.375 92.714844 C 186.035156 91.003906 186.375 89.230469 186.390625 87.394531 C 186.390625 79.214844 179.535156 73.714844 172.589844 73.714844 C 164.636719 73.714844 158.871094 80.433594 158.871094 87.40625 C 158.871094 90.816406 160.199219 94.421875 163.289062 97.695312 C 146.300781 103.90625 153.546875 101.320312 145.597656 104.6875 C 145.429688 104.375 145.34375 104.039062 145.339844 103.683594 C 145.34375 103.441406 145.378906 103.199219 145.445312 102.964844 C 147.363281 100.304688 148.0625 99.585938 148.0625 98.203125 C 148.0625 97.449219 147.707031 96.796875 147.707031 94.332031 C 147.707031 85.867188 149.757812 85.105469 149.757812 84.136719 C 149.757812 84.035156 149.722656 83.882812 149.722656 83.527344 C 149.726562 82.144531 149.519531 79.75 149.695312 79.585938 Z M 149.695312 79.585938 "/><path style=" stroke:none;fill-rule:nonzero;fill:#fed29c;fill-opacity:1;" d="M 234.660156 106.488281 C 234.035156 106.328125 233.398438 106.25 232.753906 106.25 C 230.832031 106.25 229.304688 106.863281 228.800781 106.863281 C 227.402344 106.863281 227.695312 104.804688 219.402344 99.367188 C 212.347656 95.265625 208.785156 96.789062 207.5 94.753906 C 206.195312 92.683594 207.222656 86.960938 207.222656 70.039062 C 207.222656 69.191406 207.230469 68.660156 207.230469 68.597656 C 207.230469 68.367188 207.203125 68.132812 207.203125 67.890625 C 207.191406 67.574219 207.265625 67.277344 207.421875 67 C 208.742188 67.046875 215.410156 71.917969 217.632812 73.636719 C 234.40625 86.617188 235.8125 87.292969 235.8125 94.242188 C 235.8125 94.285156 235.429688 105.367188 234.660156 106.488281 Z M 234.660156 106.488281 "/><path style=" stroke:none;fill-rule:nonzero;fill:#fed29c;fill-opacity:1;" d="M 3.667969 39.25 C 3.660156 39.152344 3.65625 39.058594 3.65625 38.960938 L 3.65625 38.945312 L 19.265625 38.945312 C 19.273438 39.035156 19.285156 39.125 19.296875 39.214844 C 19.144531 39.269531 18.988281 39.300781 18.832031 39.320312 C 18.785156 39.320312 16.804688 39.316406 3.667969 39.25 Z M 3.667969 39.25 "/><g clip-rule="nonzero" clip-path="url(#40261cdf16)"><path style=" stroke:none;fill-rule:nonzero;fill:#383838;fill-opacity:1;" d="M 3.460938 39.753906 C 3.441406 39.546875 3.507812 39.382812 3.667969 39.25 C 16.492188 39.3125 18.785156 39.320312 18.832031 39.320312 C 18.988281 39.300781 19.144531 39.269531 19.296875 39.214844 C 201.804688 39.539062 189.144531 38.125 189.144531 42.355469 C 189.144531 42.703125 189.121094 44.972656 189.121094 49.894531 C 189.121094 54.113281 189.140625 60.078125 189.140625 62.65625 C 189.140625 62.871094 189.136719 63.085938 189.136719 63.300781 C 189.136719 64.5 189.199219 64.636719 189.601562 64.636719 C 190.476562 64.636719 198.257812 63.40625 200.089844 63.40625 C 212.144531 63.40625 226.078125 80.507812 233.210938 84.195312 C 236.3125 85.796875 237.765625 91.304688 237.765625 94.191406 C 237.765625 95.039062 237.679688 95.875 237.507812 96.707031 C 237.25 97.96875 237.328125 99.296875 237.226562 100.59375 C 236.761719 106.433594 236.476562 106.644531 236.476562 107.335938 C 236.46875 107.679688 236.570312 107.988281 236.785156 108.257812 C 239.511719 111.789062 243.664062 123.816406 243.664062 129.152344 C 243.679688 129.898438 243.523438 130.609375 243.199219 131.28125 C 242.875 131.957031 242.417969 132.519531 241.824219 132.976562 C 234.320312 139.15625 232.535156 139.191406 232.535156 140.40625 C 232.539062 140.558594 232.5625 140.710938 232.605469 140.855469 C 240.898438 169.425781 239.785156 183.605469 259.433594 183.605469 C 262.378906 183.605469 264.898438 182.988281 270.308594 182.988281 C 302.542969 182.988281 322.710938 185.515625 334.992188 207.101562 C 349.074219 231.839844 354.929688 302.265625 354.929688 302.308594 C 354.929688 303 354.015625 303.375 353.710938 303.375 C 353.503906 303.371094 353.324219 303.304688 353.167969 303.167969 C 349.921875 300.566406 340.34375 298.421875 340.230469 298.421875 C 340.058594 298.425781 339.890625 298.457031 339.730469 298.519531 C 337.148438 332.292969 332.957031 352.058594 312.21875 361.007812 C 312.421875 361.25 312.679688 361.363281 312.996094 361.34375 C 313.097656 361.34375 313.191406 361.339844 313.285156 361.339844 C 375.003906 361.339844 372.054688 361.28125 372.054688 362.476562 C 372.054688 363.355469 371.082031 363.390625 370.386719 363.390625 C 369.484375 363.390625 312.738281 363.097656 306.050781 363.097656 C 304.519531 363.097656 293.492188 365.546875 275.75 365.546875 C 258.335938 365.546875 247.308594 363.394531 240.394531 363.394531 C 239.28125 363.394531 239.542969 364.011719 238.765625 364.011719 C 238.722656 364.011719 229.128906 363.972656 211.367188 363.972656 C 191.382812 363.972656 63.8125 364.066406 63.707031 364.066406 C 60.089844 364.066406 57.703125 364.066406 57.613281 364.066406 C 53.628906 364.066406 53.355469 369.371094 31.996094 369.371094 C 11.023438 369.371094 14.90625 363.40625 10.3125 363.40625 C 9.945312 363.40625 7.898438 363.515625 1.546875 363.515625 C -0.00390625 363.515625 0 363.0625 0 362.628906 C 0 361.667969 0.386719 361.667969 9.089844 361.667969 C 9.210938 361.667969 9.332031 361.671875 9.453125 361.671875 C 9.714844 361.6875 9.953125 361.628906 10.175781 361.488281 C 10.171875 361.460938 10.171875 361.429688 10.171875 361.402344 C 10.171875 361.371094 10.171875 361.332031 10.171875 361.292969 C 10.171875 361 4.648438 352.296875 4.648438 330.898438 C 4.648438 322.878906 26.148438 321.777344 33.644531 321.777344 C 44.863281 321.777344 60.644531 323.617188 60.644531 329.15625 C 60.644531 329.980469 60.351562 330.257812 60.351562 331.425781 C 60.355469 331.703125 60.375 331.980469 60.414062 332.253906 C 60.550781 332.316406 60.691406 332.34375 60.84375 332.34375 C 61.359375 332.34375 62.160156 331.761719 64.492188 331.761719 C 70.359375 331.761719 71.289062 335.484375 71.289062 342.429688 C 71.289062 348.957031 70.644531 356.484375 59.714844 356.492188 C 58.601562 356.492188 58.902344 356.5 57.113281 362.160156 L 85.09375 362.160156 C 81.007812 351.121094 49.542969 272.714844 49.542969 271.726562 C 49.542969 270.839844 50.261719 270.675781 51.144531 270.675781 C 51.363281 270.675781 51.578125 270.679688 51.796875 270.679688 C 53.476562 270.679688 116.023438 270.191406 116.070312 270.191406 L 116.570312 270.191406 C 122.898438 270.191406 140.148438 198.25 170.757812 198.25 C 174.691406 198.25 189.292969 199.683594 199.714844 199.683594 C 209.425781 199.683594 209.453125 190.855469 209.453125 190.609375 C 209.453125 187.773438 208.007812 184.667969 207 182.03125 C 202.835938 183.957031 198.535156 186.316406 192.375 186.316406 C 179.339844 186.316406 172.089844 163.910156 170.046875 163.910156 C 169.628906 163.910156 169.527344 164.078125 168.898438 164.078125 C 168.574219 164.078125 168.242188 164.039062 167.917969 164.039062 C 163.425781 164.039062 4.667969 164.230469 4.621094 164.230469 C 2.945312 164.230469 2.734375 164.179688 2.734375 162.863281 C 2.734375 162.816406 3.574219 54.746094 3.574219 42.640625 C 3.574219 41.628906 3.460938 40.101562 3.460938 39.753906 Z M 224.753906 105.957031 C 224.808594 105.847656 224.839844 105.730469 224.84375 105.609375 C 224.84375 104.90625 212.808594 94.578125 192.4375 94.578125 C 169.898438 94.578125 131.058594 108.824219 131.058594 121.988281 C 131.0625 122.519531 131.121094 123.042969 131.234375 123.5625 C 139.28125 106.710938 175.867188 96.113281 195.324219 96.113281 C 215.710938 96.113281 223.25 105.570312 224.714844 105.980469 M 150.324219 79.257812 C 149.96875 79.671875 146.546875 83.019531 146.457031 87.585938 C 146.402344 90.457031 145.425781 99.734375 145.425781 102.023438 C 145.425781 102.335938 145.433594 102.652344 145.449219 102.964844 C 145.382812 103.199219 145.347656 103.441406 145.34375 103.683594 C 145.34375 104.039062 145.429688 104.375 145.597656 104.6875 C 153.546875 101.320312 146.300781 103.90625 163.292969 97.695312 C 160.199219 94.421875 158.871094 90.816406 158.871094 87.40625 C 158.871094 80.414062 164.660156 73.714844 172.59375 73.714844 C 173.496094 73.714844 174.386719 73.800781 175.273438 73.976562 C 176.15625 74.148438 177.015625 74.410156 177.847656 74.75 C 178.683594 75.09375 179.472656 75.515625 180.226562 76.011719 C 180.976562 76.511719 181.671875 77.078125 182.3125 77.710938 C 182.953125 78.347656 183.523438 79.035156 184.03125 79.785156 C 184.535156 80.53125 184.960938 81.320312 185.3125 82.148438 C 185.660156 82.980469 185.925781 83.835938 186.109375 84.71875 C 186.292969 85.601562 186.386719 86.496094 186.394531 87.394531 C 186.375 89.230469 186.039062 91.003906 185.375 92.714844 C 185.65625 92.914062 185.96875 93.011719 186.3125 93.003906 C 186.488281 93.003906 188.992188 92.777344 192.320312 92.777344 C 201.285156 92.777344 204.046875 94.148438 205.105469 94.148438 C 205.601562 94.148438 205.671875 93.867188 205.671875 93.214844 C 205.671875 87.144531 205.316406 69.484375 205.316406 69.441406 C 205.316406 68.738281 205.34375 68.183594 205.34375 67.308594 C 205.34375 65.988281 205.261719 65.996094 203.804688 65.59375 C 202.773438 65.324219 201.730469 65.191406 200.664062 65.199219 C 190.546875 65.199219 155.390625 73.628906 150.324219 79.257812 Z M 196.128906 274.664062 C 196.140625 274.59375 196.148438 274.527344 196.148438 274.457031 C 196.148438 273.914062 195.738281 273.496094 195.609375 272.992188 C 195.273438 271.671875 194.441406 271.398438 193.183594 271.398438 C 193.136719 271.398438 66.074219 272.410156 54.835938 272.410156 C 53.84375 272.410156 52.859375 272.40625 51.886719 272.40625 C 51.84375 272.539062 51.820312 272.675781 51.820312 272.816406 C 51.820312 272.859375 86.402344 362.246094 88.128906 362.246094 C 88.523438 362.246094 88.949219 362.164062 89.351562 362.164062 C 89.425781 362.164062 89.496094 362.167969 89.566406 362.171875 C 92.566406 362.171875 235.128906 362.136719 235.171875 362.136719 C 235.472656 362.136719 235.78125 362.164062 236.082031 362.164062 C 236.402344 362.175781 236.710938 362.125 237.011719 362.015625 C 237.015625 361.960938 237.019531 361.90625 237.019531 361.851562 C 237.019531 361.339844 196.546875 274.8125 196.128906 274.664062 Z M 352.390625 300.566406 C 352.46875 300.566406 352.546875 300.550781 352.617188 300.519531 C 352.730469 300.367188 352.785156 300.199219 352.78125 300.007812 C 352.78125 173.902344 297.125 184.835938 268.886719 184.835938 C 265.386719 184.835938 253.535156 227.359375 222.101562 227.359375 C 198.4375 227.359375 191.738281 201.242188 189.871094 201.140625 C 182.117188 200.726562 172.421875 200.015625 170.636719 200.015625 C 168.6875 200.011719 166.78125 200.289062 164.914062 200.84375 C 163.046875 201.398438 161.300781 202.207031 159.671875 203.273438 C 142.820312 214.050781 120.125 269.800781 120.125 269.84375 C 120.128906 269.949219 120.140625 270.050781 120.167969 270.152344 C 120.476562 270.152344 120.796875 270.152344 121.125 270.152344 C 122.347656 270.152344 161.910156 269.839844 161.953125 269.839844 C 162.148438 269.839844 162.175781 269.851562 162.300781 269.851562 C 163.507812 269.851562 174.433594 229.824219 175.777344 229.824219 C 176.015625 229.816406 176.21875 229.898438 176.390625 230.0625 C 176.5625 230.230469 176.648438 230.429688 176.652344 230.667969 C 176.652344 231.328125 164.917969 268.972656 164.917969 269.367188 C 164.917969 269.492188 164.9375 269.609375 164.96875 269.726562 C 165.253906 269.8125 165.542969 269.851562 165.839844 269.847656 L 194.441406 269.625 C 196.699219 269.625 194.679688 266.769531 216.875 314.183594 C 217.515625 315.554688 211.089844 315.757812 281.078125 315.757812 L 281.269531 315.757812 C 281.75 315.757812 281.835938 315.761719 281.886719 315.761719 C 282.351562 315.761719 282.53125 315.5 282.53125 315.0625 L 282.53125 314.984375 C 282.53125 314.9375 282.75 296.507812 282.75 296.460938 C 282.757812 296.226562 282.6875 296.019531 282.539062 295.84375 C 282.429688 295.828125 282.320312 295.820312 282.214844 295.820312 C 281.539062 295.886719 280.875 296 280.21875 296.160156 C 273.816406 297.140625 267.601562 298.808594 261.574219 301.175781 C 260.976562 301.175781 260.648438 300.742188 260.648438 299.964844 C 260.648438 276.296875 273.734375 211.808594 276.234375 211.808594 C 276.464844 211.789062 276.667969 211.859375 276.839844 212.015625 C 277.011719 212.175781 277.101562 212.371094 277.109375 212.601562 C 277.109375 212.816406 262.464844 271.085938 262.464844 297.414062 C 262.464844 297.898438 262.480469 298.390625 262.523438 298.898438 C 270.238281 295.722656 286.121094 292.394531 303.039062 292.394531 C 334.890625 292.398438 352.347656 300.566406 352.390625 300.566406 Z M 157.679688 138.105469 C 153.769531 139.765625 152.648438 140.449219 149.839844 140.449219 C 147.984375 140.449219 140.816406 140.386719 137.027344 132.09375 C 134.996094 127.644531 129.335938 129.605469 129.335938 121.996094 C 129.335938 112.542969 143.25 107.625 143.398438 104.695312 C 144.507812 82.652344 144.050781 78.832031 156.621094 73.828125 C 183.03125 63.3125 187.382812 66.984375 187.382812 63.800781 C 187.382812 55.914062 187.363281 43.890625 187.363281 42.949219 C 187.363281 42.710938 187.367188 42.511719 187.367188 42.335938 C 187.367188 41.386719 187.285156 41.335938 186.222656 41.335938 L 185.777344 41.335938 C 182.742188 41.335938 6.257812 40.945312 6.214844 40.945312 C 5.242188 40.945312 4.601562 30.519531 4.601562 160.75 C 4.601562 162.40625 4.730469 162.472656 6.488281 162.472656 C 8.917969 162.472656 167.835938 162.207031 167.839844 162.207031 C 168.089844 162.207031 168.34375 162.230469 168.597656 162.230469 C 168.902344 162.238281 169.191406 162.1875 169.472656 162.078125 C 169.304688 161.390625 169.007812 160.761719 168.582031 160.195312 C 166.78125 161.085938 166.722656 161.152344 166.417969 161.152344 C 166.1875 161.132812 165.996094 161.039062 165.835938 160.875 C 165.675781 160.707031 165.59375 160.507812 165.585938 160.28125 C 165.585938 159.386719 167.101562 159.15625 167.699219 158.398438 L 160.78125 144.230469 L 153.972656 147.621094 C 157.917969 153.527344 162.207031 159.074219 162.207031 159.828125 C 162.191406 160.050781 162.101562 160.242188 161.941406 160.398438 C 161.777344 160.550781 161.582031 160.632812 161.359375 160.640625 C 160.503906 160.640625 151.535156 147.316406 151.535156 147.269531 C 151.535156 146.179688 159.128906 143.472656 159.917969 142.476562 C 159.273438 140.964844 158.53125 139.507812 157.679688 138.105469 Z M 219.296875 317.078125 C 218.984375 317.070312 218.695312 317.144531 218.421875 317.296875 C 218.4375 317.34375 238.148438 361.609375 240.203125 361.625 C 249.113281 361.691406 258.828125 363.785156 275.941406 363.785156 C 307.316406 363.785156 325.117188 359.359375 332.242188 334.925781 C 335.117188 325.066406 338.015625 302.628906 338.015625 298.578125 C 338.015625 297.0625 316.316406 294.203125 303.25 294.203125 C 297.316406 294.164062 291.40625 294.539062 285.523438 295.324219 C 284.769531 295.398438 284.558594 295.707031 284.558594 296.453125 C 284.558594 296.464844 284.558594 296.542969 284.558594 296.660156 C 284.558594 298.242188 284.296875 311.8125 284.296875 314.921875 C 284.296875 315.789062 284.398438 315.804688 285.460938 315.820312 C 292.671875 315.933594 293.273438 315.597656 293.273438 316.769531 C 293.273438 317.644531 292.386719 317.632812 291.796875 317.632812 C 290.261719 317.632812 219.328125 317.078125 219.296875 317.078125 Z M 169.355469 157.65625 C 178.886719 152.394531 179.207031 152.160156 179.628906 152.160156 C 180.171875 152.160156 180.460938 152.78125 180.460938 153.035156 C 180.460938 154.296875 170.53125 158.4375 170.3125 159.492188 C 181.164062 180.472656 186.25 184.550781 192.28125 184.550781 C 200.304688 184.550781 205.574219 180.085938 207.171875 180.085938 C 208.585938 180.085938 211.210938 187.933594 211.210938 190.691406 C 211.210938 196.054688 207.101562 200.875 202.269531 201.3125 C 201.914062 201.308594 201.59375 201.417969 201.3125 201.640625 C 202.15625 205.132812 208.605469 215.039062 220.832031 215.039062 C 241.84375 215.039062 254.074219 189.503906 254.074219 185.28125 C 254.066406 185.101562 253.992188 184.957031 253.847656 184.851562 C 243.347656 182.617188 241.589844 176.871094 241.234375 176.035156 C 235.726562 163.105469 230.789062 140.375 230.789062 140.09375 C 230.789062 138.621094 231.105469 138.746094 240.175781 132.066406 C 240.726562 131.699219 241.15625 131.226562 241.460938 130.644531 C 241.769531 130.0625 241.921875 129.441406 241.914062 128.78125 C 241.914062 126.417969 237.78125 108.109375 233.039062 108.109375 C 231.300781 108.109375 221.933594 109.136719 221.933594 116.15625 C 221.933594 123.921875 227.433594 127.941406 229.960938 127.941406 C 231.304688 127.941406 232.625 127 232.625 124.789062 C 232.625 124.390625 232.574219 124 232.472656 123.613281 C 231.144531 118.589844 229.941406 118.699219 229.941406 117.71875 C 229.933594 117.511719 230 117.335938 230.140625 117.183594 C 230.277344 117.035156 230.449219 116.953125 230.652344 116.941406 C 231.625 116.941406 234.296875 121.164062 234.296875 125.121094 C 234.296875 127.917969 232.441406 129.722656 229.964844 129.722656 C 225.992188 129.722656 224.730469 126.46875 223.335938 126.46875 C 222.839844 126.46875 222.621094 126.679688 222.058594 126.679688 C 218.691406 126.679688 216.40625 111.359375 212.792969 111.359375 C 212.601562 111.359375 212.058594 111.390625 211.09375 111.390625 C 206.863281 111.390625 204.628906 110.742188 201.703125 110.742188 C 200.722656 110.722656 199.789062 110.917969 198.898438 111.324219 C 198.007812 111.730469 197.25 112.308594 196.621094 113.0625 C 192.023438 118.238281 188.957031 115.984375 180.808594 125.28125 C 176.902344 129.734375 172.078125 126.769531 165.359375 133.261719 C 163.117188 135.425781 162.09375 134.667969 161.703125 135.164062 C 161.023438 136.03125 159.984375 136.4375 159.085938 137.125 L 161.507812 141.695312 C 162.585938 141.640625 177.910156 133.390625 178.941406 133.390625 C 179.171875 133.40625 179.359375 133.5 179.511719 133.667969 C 179.664062 133.839844 179.738281 134.039062 179.726562 134.269531 C 179.726562 135.238281 178.785156 135.089844 162.375 143.46875 Z M 6.519531 332.539062 C 8.050781 364.800781 14.292969 367.628906 31.941406 367.628906 C 57.132812 367.628906 58.664062 363.863281 58.664062 332.886719 C 58.671875 332.671875 58.589844 332.496094 58.414062 332.371094 C 51.253906 336.34375 38.296875 337.054688 31.480469 337.054688 C 28.960938 337.054688 14.273438 337 6.519531 332.539062 Z M 264.816406 185.066406 C 264.578125 185.019531 264.34375 184.996094 264.101562 185 C 264.058594 185 258.714844 185.382812 257.90625 185.382812 C 257.5 185.382812 257.054688 185.28125 256.664062 185.28125 C 255.660156 185.28125 246.90625 216.792969 220.707031 216.792969 C 203.898438 216.792969 200.207031 201.480469 198.15625 201.480469 C 198.046875 201.480469 197.902344 201.488281 197.515625 201.488281 C 195.777344 201.488281 193.488281 201.316406 193.449219 201.316406 C 193.226562 201.3125 193.046875 201.394531 192.910156 201.570312 C 194.347656 207.742188 204.351562 225.574219 222.054688 225.574219 C 249.570312 225.574219 264.257812 188.355469 264.816406 185.066406 Z M 232.753906 106.25 C 233.398438 106.25 234.035156 106.328125 234.660156 106.488281 C 235.394531 105.414062 235.8125 94.285156 235.8125 94.238281 C 235.8125 90.535156 234.585938 87.382812 231.183594 84.925781 C 222.535156 78.683594 209.363281 67.066406 207.421875 67 C 207.265625 67.273438 207.191406 67.570312 207.203125 67.890625 C 207.203125 68.128906 207.230469 68.367188 207.230469 68.597656 C 207.230469 68.660156 207.222656 69.1875 207.222656 70.035156 C 207.222656 73.25 207.355469 76.460938 207.4375 79.671875 C 207.804688 94.28125 207.035156 94.621094 208.277344 94.914062 C 222.957031 98.375 227.976562 106.863281 228.796875 106.863281 C 229.238281 106.863281 230.882812 106.25 232.753906 106.25 Z M 184.503906 87.992188 C 184.503906 87.792969 184.5 87.707031 184.5 87.636719 C 184.507812 86.855469 184.445312 86.074219 184.300781 85.304688 C 184.160156 84.53125 183.941406 83.78125 183.652344 83.050781 C 183.359375 82.324219 183 81.628906 182.570312 80.972656 C 182.144531 80.316406 181.65625 79.707031 181.105469 79.144531 C 180.558594 78.582031 179.957031 78.082031 179.308594 77.640625 C 178.660156 77.195312 177.976562 76.824219 177.253906 76.515625 C 176.53125 76.210938 175.785156 75.976562 175.015625 75.816406 C 174.25 75.65625 173.472656 75.574219 172.6875 75.570312 C 171.902344 75.566406 171.125 75.636719 170.355469 75.785156 C 169.582031 75.933594 168.835938 76.15625 168.109375 76.453125 C 167.382812 76.75 166.691406 77.117188 166.035156 77.550781 C 165.382812 77.984375 164.777344 78.476562 164.21875 79.03125 C 163.664062 79.585938 163.167969 80.1875 162.730469 80.839844 C 162.292969 81.492188 161.921875 82.179688 161.621094 82.902344 C 161.320312 83.628906 161.09375 84.375 160.941406 85.144531 C 160.789062 85.917969 160.714844 86.695312 160.714844 87.476562 C 160.714844 93.078125 164.96875 97.117188 165.835938 97.117188 C 165.984375 97.113281 166.128906 97.089844 166.269531 97.042969 C 181.578125 92.785156 182.496094 94.496094 183.328125 92.707031 C 184.066406 91.21875 184.457031 89.648438 184.503906 87.992188 Z M 31.445312 335.1875 C 40.441406 335.1875 49.808594 334.097656 54.800781 331.773438 C 48.316406 328.945312 41.535156 327.53125 34.460938 327.535156 C 26.613281 327.535156 18.761719 329.296875 10.859375 332.351562 C 14.675781 334.203125 22.894531 335.1875 31.445312 335.1875 Z M 34.410156 323.535156 C 13.996094 323.710938 6.8125 327.824219 6.8125 329.726562 C 6.8125 330.128906 7.367188 331.324219 8.46875 331.324219 C 9.6875 331.324219 19.328125 325.75 34.886719 325.75 C 48.8125 325.75 56.152344 330.769531 57.1875 330.769531 C 58.015625 330.769531 58.808594 329.679688 58.808594 329.085938 C 58.808594 327.886719 54.796875 323.929688 34.410156 323.535156 Z M 59.289062 354.648438 C 59.585938 354.671875 59.875 354.683594 60.164062 354.683594 C 62.152344 354.640625 64.03125 354.160156 65.796875 353.246094 C 67.09375 352.625 69.425781 351.503906 69.425781 342.695312 C 69.425781 337.160156 69.097656 336.738281 68.855469 336.039062 C 68.199219 334.15625 66.710938 333.433594 64.300781 333.433594 C 63.167969 333.433594 60.242188 333.8125 60.242188 335.054688 C 60.242188 335.097656 60.246094 335.167969 60.246094 335.351562 C 60.246094 335.886719 60.21875 336.425781 60.21875 336.96875 C 60.210938 337.441406 60.246094 337.90625 60.3125 338.375 C 61.164062 338.117188 62.03125 337.972656 62.917969 337.933594 C 67.519531 337.933594 67.070312 342.957031 67.070312 343.121094 C 67.070312 348.273438 66.144531 351.457031 59.636719 352.152344 C 59.410156 352.96875 59.292969 353.800781 59.289062 354.648438 Z M 59.835938 349.546875 C 59.835938 349.761719 59.859375 349.972656 59.914062 350.179688 C 60.023438 350.226562 60.140625 350.261719 60.257812 350.285156 C 65.492188 350.285156 65.359375 345.019531 65.359375 342.46875 C 65.359375 341.078125 64.738281 339.578125 62.789062 339.578125 C 62.292969 339.589844 61.808594 339.679688 61.339844 339.84375 C 60.410156 340.148438 60.273438 340.351562 60.226562 341.351562 C 59.8125 350.554688 59.835938 349.453125 59.835938 349.546875 Z M 59.835938 349.546875 "/></g><path style=" stroke:none;fill-rule:nonzero;fill:#383838;fill-opacity:1;" d="M 319.285156 108.179688 C 289.132812 107.800781 270.554688 91.230469 270.554688 74.304688 C 270.554688 54.507812 294.074219 39.691406 320.339844 39.691406 C 352.753906 39.691406 369.226562 58.554688 369.226562 73.53125 C 369.226562 89.789062 351.375 107.691406 319.285156 108.179688 Z M 320.789062 106.335938 C 320.953125 106.335938 321.117188 106.335938 321.285156 106.335938 C 343.539062 106.335938 367.472656 92.609375 367.472656 73.585938 C 367.472656 55.246094 345.453125 41.480469 320.632812 41.480469 C 294.179688 41.480469 272.324219 56.207031 272.324219 74.292969 C 272.324219 91.175781 291.503906 106.308594 320.789062 106.335938 Z M 320.789062 106.335938 "/><path style=" stroke:none;fill-rule:nonzero;fill:#383838;fill-opacity:1;" d="M 111.570312 187.199219 C 111.570312 187.640625 111.546875 188.03125 111.546875 188.277344 C 111.589844 189.09375 111.605469 189.894531 111.605469 190.683594 C 111.605469 193.925781 111.308594 196.957031 111.109375 200 C 110.746094 205.59375 111.378906 222.355469 107.550781 222.355469 C 103.304688 222.355469 100.324219 202.828125 100.324219 189.832031 C 100.324219 179.023438 105.902344 178.191406 106.90625 178.191406 C 110.929688 178.191406 111.570312 182.027344 111.570312 187.199219 Z M 107.46875 220.410156 C 109.300781 215.597656 109.769531 190.398438 109.769531 190.0625 C 109.769531 182.585938 109.632812 180.011719 106.871094 180.011719 C 106.070312 180.011719 102.144531 180.492188 102.144531 191.0625 C 102.144531 202.730469 103.949219 209.070312 105.488281 216.9375 C 105.742188 218.246094 106.519531 219.242188 107.46875 220.410156 Z M 107.46875 220.410156 "/><path style=" stroke:none;fill-rule:nonzero;fill:#383838;fill-opacity:1;" d="M 37.113281 295.609375 C 37.113281 295.980469 37.105469 296.355469 37.105469 296.726562 L 37.105469 296.859375 C 36.859375 308.40625 33.910156 309.394531 33.667969 309.394531 C 31.144531 309.394531 30.957031 300.726562 30.957031 300.613281 C 30.957031 297.746094 31.847656 291.230469 34.683594 291.230469 C 36.816406 291.230469 37.113281 293.472656 37.113281 295.609375 Z M 32.703125 300.660156 C 32.71875 302.671875 33 304.644531 33.542969 306.578125 C 35.03125 304.203125 35.269531 300.796875 35.269531 297.53125 C 35.269531 296.609375 35.246094 295.179688 35.246094 294.898438 C 35.246094 294.660156 35.285156 294.371094 35.285156 294.09375 C 35.285156 294.066406 35.351562 293.234375 34.652344 293.234375 C 33.628906 293.234375 32.703125 298.054688 32.703125 300.660156 Z M 32.703125 300.660156 "/><path style=" stroke:none;fill-rule:nonzero;fill:#383838;fill-opacity:1;" d="M 74.203125 253.75 C 69.6875 250.484375 69.125 250.210938 69.125 249.59375 C 69.132812 249.375 69.214844 249.1875 69.359375 249.027344 C 69.507812 248.871094 69.6875 248.777344 69.902344 248.75 C 70.925781 248.75 74.847656 252.277344 75.410156 252.277344 C 76.070312 252.277344 79.21875 247.988281 80.1875 247.988281 C 80.417969 248.003906 80.617188 248.09375 80.78125 248.257812 C 80.945312 248.421875 81.03125 248.617188 81.046875 248.847656 C 81.046875 249.347656 80.871094 249.425781 77.0625 253.402344 C 78.484375 254.972656 81.964844 256.664062 81.964844 257.59375 C 81.949219 257.820312 81.863281 258.015625 81.703125 258.179688 C 81.542969 258.34375 81.351562 258.433594 81.121094 258.449219 C 80.617188 258.449219 80.542969 258.308594 75.832031 254.929688 C 71.226562 259.378906 71.269531 259.476562 70.761719 259.476562 C 70.535156 259.460938 70.34375 259.375 70.1875 259.214844 C 70.027344 259.058594 69.941406 258.863281 69.929688 258.640625 C 69.933594 258.113281 70.09375 258.050781 74.203125 253.75 Z M 74.203125 253.75 "/><path style=" stroke:none;fill-rule:nonzero;fill:#383838;fill-opacity:1;" d="M 273.078125 114.707031 C 273.078125 114.351562 273.109375 114 273.179688 113.652344 C 273.25 113.300781 273.351562 112.964844 273.488281 112.636719 C 273.625 112.308594 273.792969 111.996094 273.992188 111.703125 C 274.191406 111.410156 274.414062 111.136719 274.667969 110.886719 C 274.921875 110.636719 275.195312 110.414062 275.492188 110.21875 C 275.789062 110.023438 276.101562 109.859375 276.429688 109.726562 C 276.761719 109.59375 277.101562 109.496094 277.449219 109.429688 C 277.796875 109.363281 278.152344 109.332031 278.503906 109.335938 C 283.117188 109.335938 283.898438 113.851562 283.898438 114.765625 C 283.890625 115.121094 283.851562 115.472656 283.777344 115.816406 C 283.703125 116.164062 283.59375 116.5 283.457031 116.828125 C 283.316406 117.152344 283.148438 117.464844 282.949219 117.757812 C 282.75 118.050781 282.523438 118.324219 282.273438 118.574219 C 282.019531 118.824219 281.746094 119.046875 281.453125 119.246094 C 281.15625 119.441406 280.847656 119.609375 280.519531 119.746094 C 280.191406 119.882812 279.855469 119.988281 279.507812 120.0625 C 279.160156 120.132812 278.808594 120.171875 278.453125 120.175781 C 274.683594 120.175781 273.078125 116.921875 273.078125 114.707031 Z M 282.0625 114.730469 C 282.0625 114.25 281.96875 113.789062 281.785156 113.347656 C 281.597656 112.90625 281.335938 112.515625 280.996094 112.179688 C 280.65625 111.84375 280.265625 111.582031 279.820312 111.402344 C 279.378906 111.21875 278.917969 111.128906 278.4375 111.132812 C 277.957031 111.132812 277.5 111.226562 277.054688 111.410156 C 276.613281 111.597656 276.226562 111.859375 275.886719 112.199219 C 275.550781 112.539062 275.289062 112.929688 275.109375 113.375 C 274.925781 113.816406 274.839844 114.28125 274.839844 114.757812 C 274.839844 117.898438 277.890625 118.332031 278.472656 118.332031 C 281.898438 118.332031 282.0625 114.898438 282.0625 114.730469 Z M 282.0625 114.730469 "/><path style=" stroke:none;fill-rule:nonzero;fill:#383838;fill-opacity:1;" d="M 10.957031 302.042969 C 10.957031 302 10.957031 301.957031 10.957031 301.910156 C 11.058594 301.410156 11.175781 299.21875 12.859375 299.21875 C 16.996094 299.21875 18.480469 310.964844 18.480469 311.269531 C 18.492188 311.558594 18.402344 311.808594 18.210938 312.027344 C 18.019531 312.242188 17.777344 312.363281 17.492188 312.386719 C 16.441406 312.386719 10.957031 306.210938 10.957031 302.042969 Z M 13.035156 301.324219 C 12.792969 301.351562 12.816406 301.550781 12.792969 301.695312 C 12.757812 301.894531 12.738281 302.09375 12.738281 302.296875 C 12.738281 304.34375 15.253906 307.863281 16.296875 308.660156 C 15.816406 305.195312 14.464844 302.167969 13.035156 301.324219 Z M 13.035156 301.324219 "/><path style=" stroke:none;fill-rule:nonzero;fill:#383838;fill-opacity:1;" d="M 264.425781 128.6875 C 264.644531 128.6875 269.195312 129.0625 269.195312 133.453125 C 269.195312 137.542969 265.207031 138.1875 264.421875 138.1875 C 264.109375 138.183594 263.800781 138.152344 263.496094 138.09375 C 263.1875 138.03125 262.894531 137.941406 262.605469 137.820312 C 262.316406 137.703125 262.042969 137.558594 261.785156 137.382812 C 261.523438 137.210938 261.285156 137.015625 261.0625 136.796875 C 260.839844 136.578125 260.644531 136.339844 260.46875 136.082031 C 260.292969 135.820312 260.148438 135.550781 260.027344 135.261719 C 259.90625 134.976562 259.8125 134.679688 259.75 134.375 C 259.683594 134.070312 259.652344 133.761719 259.648438 133.449219 C 259.652344 129.375 263.617188 128.6875 264.425781 128.6875 Z M 261.488281 133.4375 C 261.484375 133.832031 261.554688 134.210938 261.699219 134.578125 C 261.847656 134.945312 262.058594 135.265625 262.335938 135.546875 C 262.613281 135.828125 262.933594 136.042969 263.296875 136.195312 C 263.664062 136.347656 264.042969 136.421875 264.433594 136.421875 C 264.828125 136.414062 265.203125 136.335938 265.5625 136.179688 C 265.921875 136.027344 266.242188 135.8125 266.515625 135.535156 C 266.792969 135.253906 267.003906 134.933594 267.152344 134.574219 C 267.304688 134.210938 267.378906 133.835938 267.382812 133.445312 C 267.386719 133.050781 267.316406 132.671875 267.167969 132.304688 C 267.019531 131.941406 266.808594 131.617188 266.53125 131.335938 C 266.257812 131.054688 265.9375 130.839844 265.574219 130.6875 C 265.210938 130.535156 264.832031 130.460938 264.4375 130.460938 C 264.042969 130.460938 263.664062 130.535156 263.300781 130.6875 C 262.9375 130.839844 262.617188 131.054688 262.339844 131.332031 C 262.0625 131.613281 261.851562 131.9375 261.703125 132.300781 C 261.554688 132.667969 261.484375 133.046875 261.488281 133.441406 Z M 261.488281 133.4375 "/><path style=" stroke:none;fill-rule:nonzero;fill:#383838;fill-opacity:1;" d="M 104.972656 231.925781 C 104.992188 231.335938 105.117188 230.765625 105.351562 230.222656 C 105.582031 229.679688 105.90625 229.195312 106.320312 228.773438 C 106.734375 228.351562 107.210938 228.019531 107.75 227.777344 C 108.289062 227.535156 108.855469 227.398438 109.445312 227.367188 C 111.390625 227.367188 113.414062 229.035156 113.414062 231.816406 C 113.414062 233.691406 111.96875 236.699219 108.910156 236.699219 C 105.355469 236.699219 104.972656 232.820312 104.972656 231.925781 Z M 109.375 229.214844 C 107.523438 229.214844 106.730469 231.257812 106.730469 232.296875 C 106.730469 233.898438 107.824219 234.886719 108.949219 234.886719 C 110.269531 234.886719 111.617188 233.558594 111.617188 231.796875 C 111.617188 231.144531 111.246094 229.214844 109.375 229.214844 Z M 109.375 229.214844 "/><path style=" stroke:none;fill-rule:nonzero;fill:#383838;fill-opacity:1;" d="M 56.757812 304.335938 C 56.757812 304.378906 56.757812 304.421875 56.757812 304.460938 C 56.769531 305.445312 56.4375 306.289062 55.757812 307 C 53.4375 309.460938 50.910156 311.59375 49.445312 311.59375 C 49.277344 311.601562 49.113281 311.574219 48.957031 311.515625 C 48.796875 311.453125 48.660156 311.363281 48.539062 311.242188 C 48.421875 311.121094 48.332031 310.984375 48.269531 310.824219 C 48.210938 310.667969 48.183594 310.503906 48.191406 310.335938 C 48.191406 309.125 52.257812 301.894531 55.023438 301.894531 C 55.085938 301.894531 56.734375 301.871094 56.757812 304.335938 Z M 50.390625 309.160156 C 53.148438 307.683594 54.878906 305.652344 54.878906 303.878906 C 54.878906 303.859375 54.878906 303.835938 54.878906 303.816406 C 52.605469 304.945312 51.621094 307 50.390625 309.160156 Z M 50.390625 309.160156 "/><path style=" stroke:none;fill-rule:nonzero;fill:#383838;fill-opacity:1;" d="M 101.816406 253.769531 L 106.554688 253.769531 C 113.300781 253.769531 113.878906 253.558594 113.878906 254.65625 C 113.878906 255.835938 114.277344 255.585938 90.828125 255.585938 C 90.183594 255.585938 89.429688 255.417969 89.429688 254.773438 C 89.429688 253.542969 90.171875 253.820312 97.140625 253.820312 L 101.816406 253.820312 Z M 101.816406 253.769531 "/><path style=" stroke:none;fill-rule:nonzero;fill:#fed29c;fill-opacity:1;" d="M 196.128906 274.664062 C 196.550781 274.8125 237.019531 361.40625 237.019531 361.851562 C 237.019531 361.90625 237.019531 361.960938 237.011719 362.015625 C 236.710938 362.125 236.402344 362.175781 236.085938 362.164062 C 235.78125 362.164062 235.476562 362.136719 235.171875 362.136719 C 235.128906 362.136719 91.34375 362.171875 89.570312 362.171875 C 88.96875 356.632812 74.351562 322.417969 73.480469 317.847656 C 71.429688 307.082031 65.878906 299.695312 65.257812 292.796875 C 64.683594 286.394531 62.050781 281.726562 62.050781 279.464844 C 62.050781 278.257812 62.691406 277.710938 64.195312 277.460938 C 69.867188 276.527344 70.929688 276.597656 71.28125 276.597656 C 73.824219 276.597656 75.097656 277.246094 77.859375 277.246094 C 87.316406 277.246094 94.769531 274.738281 100.90625 274.738281 C 104.429688 274.738281 105.652344 275.363281 110.203125 275.363281 C 118.71875 275.363281 127.039062 272.757812 134.652344 272.757812 C 139.660156 272.757812 153.972656 275.316406 185.226562 275.316406 C 194.347656 275.316406 188.621094 274.957031 196.128906 274.664062 Z M 130.765625 316.34375 C 130.765625 320.125 134.019531 324.085938 138.566406 324.085938 L 138.664062 324.085938 C 142.9375 324.085938 146.605469 320.601562 146.605469 316.375 C 146.605469 312.433594 143.730469 308.25 138.664062 308.25 C 134.203125 308.25 130.769531 312 130.769531 316.34375 Z M 130.765625 316.34375 "/><path style=" stroke:none;fill-rule:nonzero;fill:#383838;fill-opacity:1;" d="M 215.398438 287.1875 C 215.171875 287.1875 214.984375 287.105469 214.832031 286.945312 C 214.675781 286.785156 214.605469 286.59375 214.613281 286.371094 C 214.613281 285.652344 245.324219 252.265625 245.941406 252.265625 C 246.171875 252.289062 246.371094 252.378906 246.539062 252.542969 C 246.703125 252.707031 246.800781 252.90625 246.828125 253.136719 C 246.828125 253.664062 216.214844 287.1875 215.398438 287.1875 Z M 215.398438 287.1875 "/><path style=" stroke:none;fill-rule:nonzero;fill:#383838;fill-opacity:1;" d="M 330.820312 262.25 C 330.824219 262.28125 330.828125 262.3125 330.828125 262.34375 C 330.828125 262.628906 321.160156 279.84375 320.183594 279.84375 C 319.960938 279.824219 319.773438 279.730469 319.621094 279.574219 C 319.464844 279.414062 319.382812 279.222656 319.367188 279 C 319.367188 278.460938 328.882812 261.429688 330.03125 261.429688 C 330.25 261.4375 330.4375 261.519531 330.589844 261.679688 C 330.746094 261.839844 330.820312 262.027344 330.820312 262.25 Z M 330.820312 262.25 "/><path style=" stroke:none;fill-rule:nonzero;fill:#383838;fill-opacity:1;" d="M 240.640625 267.160156 C 240.886719 267.179688 241.089844 267.285156 241.25 267.472656 C 241.410156 267.664062 241.476562 267.882812 241.449219 268.128906 C 241.449219 268.429688 241.152344 268.726562 240.925781 268.953125 C 230.09375 279.535156 230.871094 278.945312 230.222656 278.945312 C 230 278.9375 229.8125 278.855469 229.652344 278.699219 C 229.496094 278.542969 229.410156 278.355469 229.402344 278.132812 C 229.398438 277.453125 239.976562 267.160156 240.640625 267.160156 Z M 240.640625 267.160156 "/><path style=" stroke:none;fill-rule:nonzero;fill:#383838;fill-opacity:1;" d="M 332.082031 269.003906 C 332.082031 269.03125 332.085938 269.058594 332.085938 269.082031 C 332.0625 269.390625 331.960938 269.664062 331.773438 269.90625 C 327.054688 277.25 327.039062 277.515625 326.351562 277.515625 C 326.128906 277.507812 325.941406 277.421875 325.785156 277.265625 C 325.625 277.109375 325.542969 276.921875 325.53125 276.703125 C 325.589844 276.269531 325.75 275.886719 326.019531 275.542969 C 330.398438 268.714844 330.625 268.199219 331.242188 268.199219 C 331.464844 268.203125 331.65625 268.285156 331.820312 268.4375 C 331.980469 268.59375 332.070312 268.78125 332.082031 269.003906 Z M 332.082031 269.003906 "/><path style=" stroke:none;fill-rule:nonzero;fill:#383838;fill-opacity:1;" d="M 163.128906 210.9375 C 163.359375 210.9375 163.554688 211.015625 163.714844 211.179688 C 163.878906 211.339844 163.960938 211.535156 163.960938 211.761719 C 163.929688 212.175781 163.746094 212.507812 163.414062 212.757812 C 156.8125 219.386719 156.808594 219.546875 156.121094 219.546875 C 155.917969 219.542969 155.746094 219.46875 155.601562 219.324219 C 155.460938 219.183594 155.386719 219.011719 155.382812 218.808594 C 155.453125 218.328125 155.671875 217.929688 156.042969 217.617188 C 163.0625 210.214844 162.953125 210.9375 163.128906 210.9375 Z M 163.128906 210.9375 "/><path style=" stroke:none;fill-rule:nonzero;fill:#383838;fill-opacity:1;" d="M 89.335938 131.128906 C 89.636719 131.261719 89.949219 131.320312 90.277344 131.3125 C 90.5625 131.3125 90.847656 131.28125 91.125 131.28125 C 127.511719 131.28125 126.203125 131.027344 126.203125 132.25 C 126.203125 133.167969 125.226562 133.195312 124.671875 133.195312 C 124.628906 133.195312 102.898438 133.113281 89.28125 133.050781 C 87.023438 133.042969 87.101562 138.859375 87.101562 71.46875 C 87.101562 70.175781 87.632812 69.839844 88.828125 69.839844 C 89.03125 69.839844 89.234375 69.847656 89.4375 69.847656 C 94.648438 69.847656 124.023438 69.816406 124.070312 69.816406 C 124.941406 69.816406 125.636719 69.957031 125.636719 70.664062 C 125.636719 71.902344 127.582031 71.582031 90.167969 71.582031 L 89.113281 71.582031 C 88.925781 71.808594 88.839844 72.070312 88.851562 72.367188 C 88.851562 72.414062 89.089844 99.6875 89.089844 99.734375 C 89.089844 99.875 89.082031 99.902344 89.082031 99.976562 C 89.082031 100.4375 89.269531 100.703125 89.78125 100.703125 C 89.84375 100.703125 89.933594 100.699219 90.195312 100.699219 C 90.238281 100.699219 105.890625 100.792969 109.226562 100.792969 C 109.398438 100.792969 109.566406 100.789062 109.738281 100.789062 C 109.890625 100.789062 111.570312 100.722656 111.570312 101.660156 C 111.570312 102.734375 110.3125 102.632812 109.757812 102.632812 C 108.992188 102.632812 91.179688 102.460938 90.671875 102.460938 C 89.167969 102.460938 89.125 102.445312 89.125 103.546875 C 89.121094 103.589844 89.179688 129.140625 89.335938 131.128906 Z M 89.335938 131.128906 "/><path style=" stroke:none;fill-rule:nonzero;fill:#383838;fill-opacity:1;" d="M 57.398438 102.527344 C 55.574219 102.527344 53.75 102.523438 51.925781 102.523438 C 46.109375 102.523438 46.632812 102.25 46.023438 103.921875 C 34.980469 134.234375 35.964844 132.28125 35.066406 132.28125 C 34.941406 132.28125 34.820312 132.253906 34.707031 132.203125 C 34.59375 132.152344 34.496094 132.082031 34.414062 131.988281 C 34.332031 131.898438 34.269531 131.792969 34.230469 131.671875 C 34.191406 131.554688 34.179688 131.433594 34.191406 131.3125 C 34.191406 131.265625 55.675781 70.53125 57.089844 70.53125 C 58.609375 70.53125 58.734375 71.175781 58.960938 71.796875 C 58.976562 71.839844 80.460938 130.75 80.460938 131.425781 C 80.464844 131.660156 80.382812 131.863281 80.214844 132.027344 C 80.046875 132.195312 79.84375 132.273438 79.605469 132.269531 C 77.929688 132.269531 69.503906 102.382812 67.101562 102.382812 C 67.054688 102.382812 63.253906 102.445312 57.808594 102.445312 L 57.394531 102.445312 Z M 57.402344 72.730469 C 53.9375 82.242188 50.597656 91.40625 47.234375 100.632812 L 67.515625 100.632812 C 64.152344 91.351562 60.847656 82.234375 57.402344 72.730469 Z M 57.402344 72.730469 "/><path style=" stroke:none;fill-rule:nonzero;fill:#383838;fill-opacity:1;" d="M 20.648438 50.074219 C 22.859375 50.074219 24.851562 52.089844 24.851562 54.433594 C 24.851562 55.109375 24.28125 58.75 20.539062 58.75 C 20.257812 58.746094 19.976562 58.71875 19.703125 58.660156 C 19.425781 58.605469 19.160156 58.519531 18.898438 58.410156 C 18.640625 58.300781 18.394531 58.167969 18.160156 58.007812 C 17.925781 57.851562 17.710938 57.671875 17.511719 57.472656 C 17.316406 57.273438 17.136719 57.054688 16.984375 56.820312 C 16.828125 56.582031 16.695312 56.335938 16.589844 56.074219 C 16.484375 55.8125 16.40625 55.546875 16.351562 55.269531 C 16.296875 54.992188 16.269531 54.714844 16.273438 54.429688 C 16.273438 50.644531 19.894531 50.074219 20.648438 50.074219 Z M 20.566406 56.902344 C 20.890625 56.898438 21.207031 56.828125 21.507812 56.699219 C 21.808594 56.566406 22.070312 56.382812 22.300781 56.148438 C 22.527344 55.914062 22.699219 55.640625 22.820312 55.335938 C 22.941406 55.035156 23 54.71875 22.996094 54.390625 C 22.992188 54.0625 22.925781 53.746094 22.796875 53.445312 C 22.667969 53.144531 22.484375 52.878906 22.25 52.652344 C 22.015625 52.421875 21.746094 52.246094 21.441406 52.125 C 21.140625 52 20.824219 51.941406 20.496094 51.945312 C 20.167969 51.945312 19.851562 52.011719 19.550781 52.140625 C 19.25 52.265625 18.984375 52.449219 18.753906 52.679688 C 18.523438 52.914062 18.34375 53.179688 18.222656 53.484375 C 18.097656 53.789062 18.035156 54.105469 18.035156 54.429688 C 18.035156 56.585938 20.160156 56.902344 20.566406 56.902344 Z M 20.566406 56.902344 "/><path style=" stroke:none;fill-rule:nonzero;fill:#383838;fill-opacity:1;" d="M 172.628906 58.652344 C 172.15625 58.652344 171.699219 58.558594 171.265625 58.375 C 170.828125 58.195312 170.441406 57.933594 170.109375 57.597656 C 169.777344 57.261719 169.519531 56.875 169.339844 56.4375 C 169.160156 56 169.074219 55.542969 169.074219 55.070312 C 169.074219 51.867188 172.171875 51.5 172.757812 51.5 C 173.226562 51.515625 173.679688 51.621094 174.105469 51.8125 C 174.535156 52.007812 174.914062 52.273438 175.238281 52.613281 C 175.5625 52.953125 175.808594 53.34375 175.980469 53.78125 C 176.152344 54.21875 176.234375 54.675781 176.226562 55.144531 C 176.226562 58.109375 173.210938 58.652344 172.628906 58.652344 Z M 172.636719 56.839844 C 172.871094 56.84375 173.09375 56.796875 173.3125 56.707031 C 173.527344 56.617188 173.71875 56.492188 173.882812 56.324219 C 174.046875 56.15625 174.171875 55.964844 174.261719 55.75 C 174.347656 55.53125 174.390625 55.308594 174.386719 55.074219 C 174.386719 54.835938 174.34375 54.609375 174.25 54.390625 C 174.160156 54.175781 174.03125 53.980469 173.863281 53.816406 C 173.695312 53.648438 173.5 53.523438 173.28125 53.433594 C 173.0625 53.347656 172.835938 53.304688 172.597656 53.308594 C 172.363281 53.308594 172.140625 53.355469 171.925781 53.449219 C 171.707031 53.539062 171.519531 53.667969 171.355469 53.835938 C 171.191406 54.003906 171.066406 54.195312 170.976562 54.414062 C 170.890625 54.632812 170.847656 54.855469 170.851562 55.089844 C 170.851562 55.324219 170.898438 55.550781 170.992188 55.765625 C 171.082031 55.980469 171.210938 56.171875 171.378906 56.335938 C 171.546875 56.5 171.738281 56.625 171.957031 56.714844 C 172.171875 56.800781 172.398438 56.84375 172.632812 56.839844 Z M 172.636719 56.839844 "/><path style=" stroke:none;fill-rule:nonzero;fill:#383838;fill-opacity:1;" d="M 146.605469 316.375 C 146.605469 320.601562 142.9375 324.085938 138.667969 324.085938 L 138.566406 324.085938 C 134.019531 324.085938 130.769531 320.125 130.769531 316.34375 C 130.769531 312.003906 134.199219 308.25 138.667969 308.25 C 140.398438 308.25 146.605469 309.574219 146.605469 316.375 Z M 132.605469 316.226562 C 132.605469 317.171875 133.457031 322.195312 138.476562 322.195312 C 138.871094 322.191406 139.261719 322.148438 139.644531 322.070312 C 140.03125 321.988281 140.40625 321.871094 140.765625 321.71875 C 141.128906 321.566406 141.472656 321.378906 141.800781 321.160156 C 142.125 320.9375 142.429688 320.6875 142.707031 320.410156 C 142.984375 320.128906 143.230469 319.828125 143.449219 319.5 C 143.667969 319.171875 143.851562 318.824219 144 318.460938 C 144.152344 318.097656 144.265625 317.722656 144.34375 317.335938 C 144.417969 316.953125 144.457031 316.5625 144.460938 316.167969 C 144.460938 314.015625 142.769531 310.128906 138.582031 310.128906 C 138.183594 310.132812 137.792969 310.175781 137.402344 310.253906 C 137.015625 310.335938 136.640625 310.457031 136.273438 310.613281 C 135.910156 310.765625 135.566406 310.957031 135.238281 311.179688 C 134.910156 311.402344 134.609375 311.65625 134.328125 311.941406 C 134.050781 312.222656 133.804688 312.53125 133.589844 312.863281 C 133.371094 313.195312 133.1875 313.542969 133.039062 313.910156 C 132.890625 314.28125 132.78125 314.65625 132.707031 315.046875 C 132.632812 315.4375 132.597656 315.832031 132.601562 316.226562 Z M 132.605469 316.226562 "/><path style=" stroke:none;fill-rule:nonzero;fill:#383838;fill-opacity:1;" d="M 212.246094 119.609375 C 211.609375 119.664062 187.335938 131.523438 187.335938 132.191406 C 187.335938 133.09375 196.855469 144.925781 196.855469 145.941406 C 196.839844 146.160156 196.75 146.347656 196.585938 146.5 C 196.425781 146.652344 196.234375 146.726562 196.011719 146.726562 C 195.101562 146.726562 184.730469 131.996094 184.730469 131.59375 C 184.730469 130.699219 212.5 117.332031 212.714844 117.332031 C 213.101562 117.332031 213.339844 117.621094 213.628906 118.292969 C 219.761719 132.585938 219.328125 131.761719 219.328125 132.136719 C 219.328125 132.25 219.308594 132.359375 219.265625 132.460938 C 219.222656 132.5625 219.160156 132.652344 219.082031 132.730469 C 219 132.808594 218.90625 132.867188 218.800781 132.90625 C 218.699219 132.945312 218.589844 132.960938 218.476562 132.953125 C 217.695312 132.953125 217.96875 133.089844 212.246094 119.609375 Z M 212.246094 119.609375 "/><path style=" stroke:none;fill-rule:nonzero;fill:#383838;fill-opacity:1;" d="M 184.839844 153.789062 C 190.355469 151.085938 190.921875 150.761719 191.40625 150.761719 C 191.632812 150.777344 191.824219 150.867188 191.980469 151.027344 C 192.136719 151.191406 192.21875 151.382812 192.226562 151.609375 C 192.210938 151.878906 192.09375 152.089844 191.878906 152.246094 C 191.445312 152.605469 185.074219 155.875 184.074219 155.875 C 183.519531 155.875 183.277344 155.507812 183.152344 154.632812 C 183.144531 154.589844 180.515625 135.882812 180.515625 134.996094 C 180.503906 134.878906 180.519531 134.765625 180.558594 134.65625 C 180.597656 134.546875 180.660156 134.449219 180.742188 134.367188 C 180.824219 134.285156 180.917969 134.222656 181.027344 134.183594 C 181.136719 134.144531 181.25 134.128906 181.367188 134.136719 C 182.335938 134.136719 182.199219 134.726562 182.855469 139.097656 C 183.734375 138.992188 184.34375 138.417969 185.058594 138.117188 C 186.734375 137.414062 186.960938 137.226562 187.347656 137.226562 C 187.96875 137.226562 188.117188 137.871094 188.117188 138.078125 C 188.117188 138.457031 187.824219 138.714844 187.429688 138.894531 C 183.953125 140.472656 184.691406 140.265625 183.925781 140.589844 C 183.691406 140.660156 183.503906 140.796875 183.359375 141 C 183.21875 141.199219 183.152344 141.421875 183.164062 141.667969 C 183.164062 141.90625 183.050781 140.902344 184.839844 153.789062 Z M 184.839844 153.789062 "/><path style=" stroke:none;fill-rule:nonzero;fill:#383838;fill-opacity:1;" d="M 212.152344 156.75 C 211.453125 155.359375 210.667969 154.375 209.164062 154.375 C 204.222656 154.375 204.824219 159.246094 203.617188 159.246094 C 203.496094 159.246094 203.378906 159.222656 203.265625 159.171875 C 203.15625 159.125 203.058594 159.054688 202.976562 158.960938 C 202.898438 158.871094 202.839844 158.765625 202.804688 158.648438 C 202.769531 158.53125 202.761719 158.414062 202.78125 158.292969 C 202.78125 157.707031 203.871094 152.65625 209.105469 152.65625 C 210.800781 152.65625 211.96875 153.285156 212.765625 154.394531 C 214.179688 156.378906 214.335938 156.78125 214.335938 157.101562 C 214.335938 157.410156 214.140625 157.660156 213.742188 157.921875 C 213.699219 157.953125 206.960938 162.070312 206.429688 162.070312 C 206.203125 162.046875 206.011719 161.953125 205.855469 161.789062 C 205.695312 161.625 205.609375 161.429688 205.59375 161.203125 C 205.597656 160.585938 205.917969 160.5 212.152344 156.75 Z M 212.152344 156.75 "/><path style=" stroke:none;fill-rule:nonzero;fill:#383838;fill-opacity:1;" d="M 217.039062 134.101562 C 217.257812 134.101562 217.441406 134.175781 217.601562 134.328125 C 217.757812 134.480469 217.839844 134.664062 217.847656 134.882812 C 217.847656 134.90625 217.847656 134.925781 217.84375 134.949219 C 217.644531 136.050781 200.296875 144.664062 200.0625 144.664062 C 199.832031 144.652344 199.644531 144.5625 199.488281 144.394531 C 199.335938 144.226562 199.261719 144.027344 199.269531 143.800781 C 199.269531 142.707031 216.8125 134.101562 217.039062 134.101562 Z M 217.039062 134.101562 "/><path style=" stroke:none;fill-rule:nonzero;fill:#383838;fill-opacity:1;" d="M 188.648438 127.664062 C 188.589844 127.664062 188.535156 127.664062 188.480469 127.664062 C 187.804688 127.664062 187.320312 127.535156 187.320312 126.847656 C 187.320312 126.335938 187.738281 126.191406 188.214844 126.042969 C 197.289062 123.234375 198.324219 116.738281 199.71875 116.738281 C 199.949219 116.75 200.144531 116.832031 200.308594 116.992188 C 200.472656 117.152344 200.5625 117.34375 200.578125 117.570312 C 200.578125 118.078125 197.878906 124.699219 188.648438 127.664062 Z M 188.648438 127.664062 "/><path style=" stroke:none;fill-rule:nonzero;fill:#383838;fill-opacity:1;" d="M 173.28125 132.46875 L 173.390625 132.46875 C 173.71875 132.46875 174.046875 132.457031 174.375 132.457031 C 175.046875 132.457031 176.003906 132.40625 176.003906 133.285156 C 176.003906 133.882812 175.632812 134.007812 174.980469 134.03125 C 164.738281 134.425781 164.304688 137.796875 162.820312 137.796875 C 162.597656 137.777344 162.410156 137.6875 162.253906 137.527344 C 162.097656 137.367188 162.015625 137.175781 162.007812 136.953125 C 162.007812 135.535156 167.507812 132.46875 173.28125 132.46875 Z M 173.28125 132.46875 "/><path style=" stroke:none;fill-rule:nonzero;fill:#383838;fill-opacity:1;" d="M 194.535156 135.851562 C 195.570312 135.851562 196.140625 137.238281 196.140625 137.820312 C 196.140625 138.359375 195.722656 139.117188 195.082031 139.117188 C 194.179688 139.117188 193.597656 137.835938 193.597656 136.980469 C 193.578125 136.839844 193.589844 136.703125 193.628906 136.570312 C 193.667969 136.4375 193.730469 136.316406 193.820312 136.207031 C 193.910156 136.101562 194.015625 136.015625 194.140625 135.953125 C 194.265625 135.894531 194.398438 135.859375 194.535156 135.851562 Z M 194.535156 135.851562 "/><path style=" stroke:none;fill-rule:nonzero;fill:#383838;fill-opacity:1;" d="M 176.28125 146.269531 C 176.273438 146.585938 176.15625 146.863281 175.933594 147.089844 C 175.710938 147.320312 175.441406 147.441406 175.121094 147.457031 C 174.382812 147.457031 173.644531 146.226562 173.644531 145.457031 C 173.65625 145.175781 173.765625 144.9375 173.972656 144.746094 C 174.175781 144.554688 174.417969 144.460938 174.699219 144.46875 C 175.132812 144.46875 175.988281 144.761719 176.28125 146.269531 Z M 176.28125 146.269531 "/><path style=" stroke:none;fill-rule:nonzero;fill:#383838;fill-opacity:1;" d="M 181.730469 160.109375 C 181.769531 159.816406 181.699219 158.902344 182.535156 158.902344 C 182.683594 158.886719 182.820312 158.917969 182.945312 159.003906 C 183.070312 159.089844 183.148438 159.203125 183.1875 159.351562 C 183.3125 159.9375 183.386719 160.535156 183.40625 161.136719 C 183.410156 161.238281 183.394531 161.339844 183.355469 161.4375 C 183.316406 161.53125 183.257812 161.617188 183.183594 161.6875 C 183.109375 161.761719 183.019531 161.8125 182.921875 161.847656 C 182.824219 161.882812 182.722656 161.894531 182.617188 161.882812 C 181.753906 161.882812 181.8125 160.960938 181.730469 160.109375 Z M 181.730469 160.109375 "/><path style=" stroke:none;fill-rule:nonzero;fill:#383838;fill-opacity:1;" d="M 186.058594 159.433594 C 186.058594 159.480469 186.058594 159.503906 186.058594 159.503906 C 186.058594 159.871094 186.066406 160.089844 186.066406 160.257812 C 186.066406 160.421875 186.09375 161.285156 185.277344 161.285156 C 184.425781 161.285156 184.425781 160.574219 184.425781 158.914062 C 184.414062 158.808594 184.425781 158.703125 184.460938 158.601562 C 184.496094 158.496094 184.550781 158.40625 184.625 158.328125 C 184.699219 158.25 184.785156 158.191406 184.886719 158.152344 C 184.984375 158.113281 185.089844 158.097656 185.195312 158.101562 C 185.222656 158.101562 186.058594 158.0625 186.058594 159.433594 Z M 186.058594 159.433594 "/><path style=" stroke:none;fill-rule:nonzero;fill:#383838;fill-opacity:1;" d="M 208.777344 146.828125 C 208.960938 146.878906 209.121094 146.976562 209.246094 147.121094 C 209.375 147.265625 209.449219 147.433594 209.472656 147.625 C 209.480469 147.679688 209.480469 147.730469 209.484375 147.78125 C 209.484375 148.140625 209.296875 148.292969 208.882812 148.292969 C 208.371094 148.257812 207.875 148.144531 207.394531 147.953125 C 206.988281 147.828125 206.644531 147.574219 206.644531 147.171875 C 206.632812 146.953125 206.703125 146.765625 206.855469 146.605469 C 207.007812 146.449219 207.195312 146.371094 207.414062 146.375 C 207.535156 146.375 207.65625 146.394531 207.777344 146.429688 C 208.089844 146.613281 208.421875 146.746094 208.777344 146.828125 Z M 208.777344 146.828125 "/><path style=" stroke:none;fill-rule:nonzero;fill:#383838;fill-opacity:1;" d="M 208.121094 145.859375 C 208.003906 145.738281 207.941406 145.589844 207.933594 145.421875 C 207.960938 145.179688 208.0625 144.980469 208.25 144.824219 C 208.433594 144.667969 208.648438 144.59375 208.890625 144.609375 C 209.132812 144.609375 210.46875 144.859375 210.46875 145.734375 C 210.480469 145.835938 210.472656 145.9375 210.4375 146.035156 C 210.402344 146.132812 210.351562 146.214844 210.277344 146.289062 C 210.203125 146.359375 210.117188 146.414062 210.019531 146.445312 C 209.921875 146.480469 209.824219 146.488281 209.722656 146.472656 C 209.632812 146.472656 209.546875 146.46875 209.460938 146.453125 C 208.988281 146.3125 208.542969 146.113281 208.121094 145.859375 Z M 208.121094 145.859375 "/><path style=" stroke:none;fill-rule:nonzero;fill:#383838;fill-opacity:1;" d="M 35.695312 331.578125 C 35.839844 331.601562 35.988281 331.613281 36.132812 331.613281 C 36.917969 331.613281 39.707031 330.796875 40.621094 330.796875 C 41.703125 330.796875 41.660156 331.507812 41.660156 331.550781 C 41.660156 332.210938 41.179688 332.429688 40.613281 332.546875 C 39.003906 332.878906 36.449219 333.546875 34.492188 333.546875 C 33.121094 333.546875 32.8125 333.164062 32.496094 331.582031 C 29.503906 331.664062 25.953125 333.183594 25.296875 333.183594 C 25.089844 333.175781 24.910156 333.097656 24.761719 332.949219 C 24.613281 332.800781 24.535156 332.621094 24.527344 332.410156 C 24.527344 331.203125 30.722656 329.8125 33.597656 329.8125 C 35.339844 329.8125 35.5 329.960938 35.695312 331.578125 Z M 35.695312 331.578125 "/><path style=" stroke:none;fill-rule:nonzero;fill:#383838;fill-opacity:1;" d="M 311.769531 75.667969 C 311.867188 67.007812 315.992188 62.347656 320.15625 62.347656 C 325.589844 62.347656 328.855469 69.457031 328.855469 75.660156 C 328.855469 82 325.648438 88.699219 320.414062 88.699219 C 315.738281 88.699219 311.828125 82.933594 311.769531 75.667969 Z M 327.039062 75.660156 C 326.9375 68.941406 323.6875 64.15625 320.179688 64.15625 C 316.003906 64.15625 313.480469 70.453125 313.480469 75.378906 C 313.480469 79.839844 315.859375 86.886719 320.414062 86.886719 C 323.566406 86.886719 327 82.722656 327.039062 75.660156 Z M 327.039062 75.660156 "/><path style=" stroke:none;fill-rule:nonzero;fill:#383838;fill-opacity:1;" d="M 333.027344 76.273438 C 333.027344 76.320312 333.027344 76.367188 333.03125 76.417969 L 345.613281 76.417969 C 345.640625 73.039062 345.636719 73.285156 345.636719 73.171875 C 345.636719 73.011719 345.636719 72.847656 345.636719 72.6875 C 345.636719 72.058594 345.582031 71.160156 346.527344 71.160156 C 347.480469 71.160156 347.417969 72.292969 347.417969 72.492188 C 347.417969 72.617188 347.414062 72.738281 347.414062 72.863281 C 347.414062 73.300781 347.417969 78.140625 347.417969 82.136719 C 347.417969 87.003906 347.617188 87.785156 346.554688 87.785156 C 345.417969 87.785156 345.644531 87.128906 345.644531 82.183594 C 345.644531 80.925781 345.644531 79.671875 345.644531 78.429688 C 345.359375 78.277344 345.058594 78.207031 344.734375 78.214844 C 344.554688 78.214844 344.761719 78.292969 332.695312 78.292969 C 331.921875 78.292969 330.769531 78.273438 330.769531 77.3125 C 330.769531 76.773438 336.609375 59.761719 337.71875 59.761719 C 337.945312 59.757812 338.144531 59.828125 338.3125 59.984375 C 338.480469 60.136719 338.574219 60.324219 338.589844 60.550781 C 338.585938 61.640625 333.027344 75.273438 333.027344 76.273438 Z M 333.027344 76.273438 "/><path style=" stroke:none;fill-rule:nonzero;fill:#383838;fill-opacity:1;" d="M 293.703125 76.46875 C 293.703125 76.585938 293.710938 76.707031 293.734375 76.820312 C 294.398438 76.820312 295.027344 76.824219 295.640625 76.824219 C 297.574219 76.824219 304.589844 76.722656 304.972656 76.722656 C 305.167969 76.722656 305.335938 76.722656 305.476562 76.722656 C 306.238281 76.722656 306.292969 76.652344 306.292969 75.789062 C 306.292969 75.640625 306.292969 75.46875 306.292969 75.273438 C 306.292969 75.019531 306.292969 74.964844 306.292969 74.53125 C 306.292969 73.996094 306.289062 73.464844 306.289062 72.929688 C 306.289062 72.464844 306.214844 71.484375 307.15625 71.484375 C 308.097656 71.484375 308.070312 72.414062 308.070312 72.886719 C 308.070312 73.0625 308.070312 73.234375 308.070312 73.40625 C 308.070312 74.082031 308.074219 80.234375 308.074219 84.355469 L 308.074219 86.097656 C 308.074219 86.253906 308.078125 86.410156 308.078125 86.5625 C 308.078125 87.367188 308.027344 88.109375 307.21875 88.109375 C 306.140625 88.109375 306.300781 87.304688 306.300781 84.890625 C 306.300781 84.132812 306.300781 83.371094 306.300781 82.609375 C 306.300781 78.300781 306.492188 78.5625 305.316406 78.5625 C 303.558594 78.5625 294.699219 78.609375 293.597656 78.609375 C 292.046875 78.609375 291.421875 78.429688 291.421875 77.65625 C 291.472656 77.105469 291.605469 76.578125 291.828125 76.074219 C 297.734375 60.121094 297.546875 60.074219 298.410156 60.074219 C 298.648438 60.089844 298.84375 60.1875 299.007812 60.359375 C 299.167969 60.53125 299.25 60.734375 299.25 60.972656 C 299.246094 61.644531 293.703125 75.746094 293.703125 76.46875 Z M 293.703125 76.46875 "/></g></svg>